<?xml version="1.0" standalone="no"?>
<!DOCTYPE svg PUBLIC "-//W3C//DTD SVG 20010904//EN"
 "http://www.w3.org/TR/2001/REC-SVG-20010904/DTD/svg10.dtd">
<svg version="1.0" xmlns="http://www.w3.org/2000/svg"
 width="450.000000pt" height="450.000000pt" viewBox="0 0 450.000000 450.000000"
 preserveAspectRatio="xMidYMid meet">
<metadata>
Created by potrace 1.11, written by Peter Selinger 2001-2013
</metadata>
<g transform="translate(0.000000,450.000000) scale(0.100000,-0.100000)"
fill="#000000" stroke="none">
<path d="M2224 4486 c-17 -8 -44 -31 -60 -52 l-29 -37 -2 -354 c-1 -232 2
-364 9 -386 33 -100 168 -134 247 -63 46 41 54 79 55 244 1 83 -3 152 -8 152
-5 0 -4 6 1 13 5 7 8 92 6 197 -3 207 -3 210 -14 210 -4 0 -10 9 -14 20 -16
51 -129 84 -191 56z"/>
<path d="M774 4011 c-79 -36 -114 -146 -68 -215 30 -46 495 -507 521 -517 52
-20 120 -8 163 28 44 37 60 88 46 148 -2 11 -5 26 -5 33 -1 7 -112 125 -248
262 -291 292 -311 305 -409 261z"/>
<path d="M3658 4016 c-26 -9 -108 -85 -290 -268 l-253 -254 -3 -53 c-4 -64 14
-107 59 -140 43 -32 114 -39 158 -17 39 21 500 481 521 520 8 16 14 50 13 77
-3 104 -104 171 -205 135z"/>
<path d="M2237 3254 c-1 -1 -45 -4 -97 -7 -92 -6 -139 -12 -190 -23 -14 -3
-36 -8 -50 -10 -42 -8 -104 -24 -125 -33 -11 -5 -48 -19 -83 -31 -243 -84
-513 -273 -672 -471 -19 -24 -47 -57 -62 -75 -16 -17 -28 -35 -28 -38 0 -4
-11 -22 -25 -40 -14 -18 -25 -38 -25 -44 0 -6 -4 -12 -9 -14 -10 -3 -121 -221
-121 -238 0 -6 -4 -18 -9 -28 -20 -36 -67 -203 -75 -264 -2 -21 -7 -42 -10
-47 -8 -12 -18 -178 -18 -271 1 -101 8 -184 27 -295 7 -46 56 -217 76 -266 37
-96 102 -229 110 -229 5 0 9 -9 9 -19 0 -11 3 -21 8 -23 4 -1 30 -38 57 -80
28 -42 56 -77 64 -78 8 0 12 -3 8 -6 -8 -8 15 -34 115 -133 97 -96 147 -141
158 -141 4 0 13 -7 20 -15 26 -32 224 -152 243 -147 4 1 7 -3 7 -9 0 -5 5 -7
10 -4 6 3 10 1 10 -4 0 -6 6 -11 13 -11 7 0 29 -9 50 -20 20 -11 37 -17 37
-13 0 4 5 2 12 -5 7 -7 22 -12 35 -12 13 0 23 -4 23 -8 0 -4 27 -14 60 -21 33
-8 60 -16 60 -20 0 -3 13 -6 29 -7 16 -1 37 -4 47 -9 19 -7 77 -15 142 -18 17
-1 32 -4 32 -7 0 -3 71 -5 158 -4 86 1 157 3 157 4 0 2 85 12 113 12 12 0 22
3 22 8 0 4 12 8 28 8 37 2 55 6 70 16 7 4 16 5 19 2 3 -3 14 -1 25 5 20 11 53
20 76 21 6 1 12 6 12 11 0 6 3 8 6 4 3 -3 30 5 60 18 30 13 54 21 54 17 0 -4
4 -2 8 3 7 11 98 55 108 54 4 0 10 4 13 9 3 5 26 20 50 33 68 37 65 36 169
114 7 6 22 18 33 28 10 9 21 17 24 17 13 0 198 196 227 241 9 14 23 33 30 40
20 22 58 77 58 85 0 4 6 15 14 23 16 19 86 155 116 226 11 28 25 58 31 69 7
11 7 16 0 12 -5 -4 -3 7 5 24 8 16 16 39 17 50 1 11 4 20 7 20 4 0 7 6 8 13 1
16 11 67 18 89 11 37 26 144 28 198 1 19 5 40 9 47 4 6 3 14 -3 18 -6 4 -7 12
-3 18 11 17 9 61 -2 69 -6 5 -5 8 3 8 7 0 11 3 9 8 -3 4 -8 45 -11 92 -3 47
-8 96 -11 110 -3 14 -6 40 -7 58 -1 18 -5 35 -10 38 -4 3 -8 20 -8 39 0 19 -4
36 -10 40 -5 3 -7 12 -4 19 3 8 0 17 -5 21 -6 3 -9 10 -6 15 3 4 -2 20 -10 36
-7 15 -12 31 -9 36 3 4 0 8 -7 8 -7 0 -10 3 -6 6 3 3 -3 26 -13 50 -11 24 -19
48 -20 52 0 4 -7 15 -15 25 -8 9 -12 17 -9 17 5 0 -64 136 -79 155 -4 6 -22
33 -40 60 -32 50 -51 76 -74 100 -7 8 -13 16 -13 20 0 3 -10 16 -22 29 -13 13
-37 38 -54 57 -29 32 -117 114 -161 150 -92 75 -291 199 -318 199 -8 0 -15 5
-15 10 0 6 -6 10 -13 10 -7 0 -33 10 -57 21 -24 12 -49 22 -54 23 -6 1 -49 14
-96 29 -47 15 -98 29 -115 32 -16 2 -41 7 -55 10 -61 14 -305 36 -313 29z"/>
</g>
</svg>
